John Travolta solidified his position as the most versatile and magnetic screen presence of the decade in this film version of the smash hit play Grease. Recording star Olivia Newton-John made her American film debut as Sandy, Travolta's naive love interest.

The impressive supporting cast reads like a "who's who" in this quintessential musical about the fabulous '50's. Grease is not just a nostalgic look at a simpler decade - it's an energetic and exciting musical homage to the age of rock n'roll!

Format : MPEG-4
Format profile : Base Media / Version 2
Codec ID : mp42
File size : 1.60 GiB
Duration : 1h 45mn
Overall bit rate : 2 164 Kbps
Encoded date : UTC 2010-10-01 19:53:42
Tagged date : UTC 2010-10-02 01:38:01
Writing application : HandBrake 0.9.3 2008112300

Video
ID : 1
Format : AVC
Format/Info : Advanced Video Codec
Format profile : Main@L4.0
Format settings, CABAC : Yes
Format settings, ReFrames : 3 frames
Codec ID : avc1
Codec ID/Info : Advanced Video Coding
Duration : 1h 45mn
Bit rate mode : Variable
Bit rate : 2 000 Kbps
Width : 720 pixels
Height : 434 pixels
Display aspect ratio : 2.35:1
Frame rate mode : Variable
Frame rate : 25.000 fps
Minimum frame rate : 12.500 fps
Maximum frame rate : 25.000 fps
Color space : YUV
Chroma subsampling : 4:2:0
Bit depth : 8 bits
Scan type : Progressive
Bits/(Pixel*Frame) : 0.256
Stream size : 1.48 GiB (92%)
Writing library : x264 core 65

Language : English
Encoded date : UTC 2010-10-01 19:53:43
Tagged date : UTC 2010-10-02 01:38:01
Color primaries : BT.601-6 525, BT.1358 525, BT.1700 NTSC, SMPTE 170M
Transfer characteristics : BT.709-5, BT.1361
Matrix coefficients : BT.601-6 525, BT.1358 525, BT.1700 NTSC, SMPTE 170M

Audio
ID : 2
Format : AAC
Format/Info : Advanced Audio Codec
Format version : Version 4
Format profile : LC
Format settings, SBR : No
Codec ID : 40
Duration : 1h 45mn
Bit rate mode : Variable
Bit rate : 160 Kbps
Maximum bit rate : 221 Kbps
Channel(s) : 2 channels
Channel positions : Front: L R
Sampling rate : 48.0 KHz
Stream size : 121 MiB (7%)
Language : English
Encoded date : UTC 2010-10-01 19:53:43
Tagged date : UTC 2010-10-02 01:37:58